<svg xmlns="http://www.w3.org/2000/svg" width="24" height="24" fill="none" viewBox="0 0 24 24"><path fill="#14171A" fill-rule="evenodd" d="M21.75 7C21.75 5.74 21.25 4.532 20.359 3.641C19.468 2.75 18.26 2.25 17 2.25H7C5.74 2.25 4.532 2.75 3.641 3.641C2.75 4.532 2.25 5.74 2.25 7V17C2.25 18.26 2.75 19.468 3.641 20.359C4.532 21.25 5.74 21.75 7 21.75H17C18.26 21.75 19.468 21.25 20.359 20.359C21.25 19.468 21.75 18.26 21.75 17V7ZM20.25 7V17C20.25 17.862 19.908 18.689 19.298 19.298C18.689 19.908 17.862 20.25 17 20.25H7C6.138 20.25 5.311 19.908 4.702 19.298C4.092 18.689 3.75 17.862 3.75 17V7C3.75 6.138 4.092 5.311 4.702 4.702C5.311 4.092 6.138 3.75 7 3.75H17C17.862 3.75 18.689 4.092 19.298 4.702C19.908 5.311 20.25 6.138 20.25 7Z" clip-rule="evenodd"/><path fill="#14171A" fill-rule="evenodd" d="M10.9397 12L8.9707 10.03C8.6777 9.73799 8.6777 9.26199 8.9707 8.96999C9.2627 8.67699 9.7387 8.67699 10.0307 8.96999L12.0007 10.939L13.9707 8.96999C14.2627 8.67699 14.7387 8.67699 15.0307 8.96999C15.3237 9.26199 15.3237 9.73799 15.0307 10.03L13.0617 12L15.0307 13.97C15.3237 14.262 15.3237 14.738 15.0307 15.03C14.7387 15.323 14.2627 15.323 13.9707 15.03L12.0007 13.061L10.0307 15.03C9.7387 15.323 9.2627 15.323 8.9707 15.03C8.6777 14.738 8.6777 14.262 8.9707 13.97L10.9397 12Z" clip-rule="evenodd"/></svg>